<svg height='300px' width='300px'  fill="#000000" xmlns="http://www.w3.org/2000/svg" xmlns:xlink="http://www.w3.org/1999/xlink" version="1.1" x="0px" y="0px" viewBox="0 0 100 100" enable-background="new 0 0 100 100" xml:space="preserve"><g><path d="M100,45H84.748C83.126,28.898,73.742,14.403,59.447,6.38c-2.411-1.352-5.457-0.494-6.809,1.913   c-1.352,2.408-0.494,5.456,1.913,6.808C67.165,22.179,75,35.551,75,50c0,14.448-7.835,27.82-20.447,34.898   c-2.408,1.353-3.265,4.399-1.912,6.809c0.916,1.634,2.614,2.554,4.364,2.554c0.828,0,1.668-0.206,2.442-0.641   C73.742,85.598,83.126,71.102,84.748,55H100V45z"></path><path d="M35,29.596c-9.541,0-17.528,6.557-19.762,15.404H0v10h15.239C17.472,63.848,25.459,70.404,35,70.404   c11.269,0,20.404-9.137,20.404-20.404C55.404,38.731,46.269,29.596,35,29.596z"></path></g></svg>